<svg width="20" height="20" viewBox="0 0 20 20" fill="none" xmlns="http://www.w3.org/2000/svg">
<g id="united kingdom" clip-path="url(#clip0_8825_982)">
<path id="Vector" d="M9.99935 20C15.2921 20 19.5827 15.5228 19.5827 10C19.5827 4.47715 15.2921 0 9.99935 0C4.70662 0 0.416016 4.47715 0.416016 10C0.416016 15.5228 4.70662 20 9.99935 20Z" fill="#F0F0F0"/>
<g id="Group">
<path id="Vector_2" d="M2.39701 3.91211C1.64423 4.9341 1.07661 6.11203 0.746094 7.39168H5.7316L2.39701 3.91211Z" fill="#0052B4"/>
<path id="Vector_3" d="M19.253 7.39164C18.9225 6.11203 18.3548 4.9341 17.6021 3.91211L14.2676 7.39164H19.253Z" fill="#0052B4"/>
<path id="Vector_4" d="M0.746094 12.6094C1.07664 13.889 1.64427 15.0669 2.39701 16.0889L5.73149 12.6094H0.746094Z" fill="#0052B4"/>
<path id="Vector_5" d="M15.8346 2.06746C14.8551 1.28195 13.7263 0.689648 12.5 0.344727V5.54695L15.8346 2.06746Z" fill="#0052B4"/>
<path id="Vector_6" d="M4.16406 17.9326C5.14347 18.7181 6.27232 19.3104 7.49861 19.6553V14.4531L4.16406 17.9326Z" fill="#0052B4"/>
<path id="Vector_7" d="M7.49858 0.344727C6.27228 0.689648 5.14343 1.28195 4.16406 2.06742L7.49858 5.54691V0.344727Z" fill="#0052B4"/>
<path id="Vector_8" d="M12.5 19.6553C13.7263 19.3104 14.8551 18.7181 15.8345 17.9326L12.5 14.4531V19.6553Z" fill="#0052B4"/>
<path id="Vector_9" d="M14.2676 12.6094L17.6021 16.0889C18.3548 15.067 18.9225 13.889 19.253 12.6094H14.2676Z" fill="#0052B4"/>
</g>
<g id="Group_2">
<path id="Vector_10" d="M19.5016 8.69566H11.2494H11.2494V0.0846484C10.8402 0.0290625 10.423 0 9.99935 0C9.57562 0 9.15852 0.0290625 8.74936 0.0846484V8.69559V8.69563H0.497137C0.443867 9.12262 0.416016 9.55793 0.416016 10C0.416016 10.4421 0.443867 10.8774 0.497137 11.3043H8.74929H8.74932V19.9154C9.15852 19.9709 9.57562 20 9.99935 20C10.423 20 10.8402 19.971 11.2493 19.9154V11.3044V11.3044H19.5016C19.5548 10.8774 19.5827 10.4421 19.5827 10C19.5827 9.55793 19.5548 9.12262 19.5016 8.69566Z" fill="#D80027"/>
<path id="Vector_11" d="M12.5 12.6084L16.7764 17.0708C16.9731 16.8656 17.1607 16.6511 17.3397 16.4288L13.6785 12.6084H12.5V12.6084Z" fill="#D80027"/>
<path id="Vector_12" d="M7.49911 12.6084H7.49903L3.22266 17.0707C3.41926 17.2759 3.62482 17.4717 3.8379 17.6585L7.49911 13.838V12.6084Z" fill="#D80027"/>
<path id="Vector_13" d="M7.49989 7.39117V7.39109L3.22348 2.92871C3.02679 3.13387 2.83917 3.34836 2.66016 3.5707L6.3214 7.39113H7.49989V7.39117Z" fill="#D80027"/>
<path id="Vector_14" d="M12.5 7.39102L16.7765 2.92859C16.5798 2.72336 16.3743 2.52758 16.1612 2.34082L12.5 6.16126V7.39102Z" fill="#D80027"/>
</g>
</g>
<defs>
<clipPath id="clip0_8825_982">
<rect width="19.1667" height="20" fill="white" transform="translate(0.416016)"/>
</clipPath>
</defs>
</svg>
