<svg width="24" height="24" viewBox="0 0 24 24" fill="none" xmlns="http://www.w3.org/2000/svg">
<g id="bell-notification">
<path id="Vector" d="M13.5354 20H10.4688" stroke="white" stroke-width="1.5" stroke-linecap="round" stroke-linejoin="round"/>
<path id="Vector_2" d="M16.7923 10.032V10C16.7923 8.67392 16.2875 7.40215 15.3888 6.46447C14.4902 5.52678 13.2715 5 12.0006 5C10.7298 5 9.51102 5.52678 8.61241 6.46447C7.7138 7.40215 7.20896 8.67392 7.20896 10V12.504C7.20889 12.6626 7.16654 12.818 7.08666 12.953C7.00678 13.0879 6.89251 13.197 6.75663 13.268L6.27459 13.519C5.91622 13.7056 5.62876 14.013 5.45885 14.3914C5.28894 14.7698 5.24653 15.1971 5.33851 15.6038C5.4305 16.0105 5.65147 16.3729 5.96559 16.6322C6.27971 16.8914 6.66855 17.0323 7.06904 17.032H16.9322C17.172 17.1572 17.4357 17.2241 17.7038 17.2278C17.9719 17.2315 18.2373 17.1719 18.4801 17.0534C18.7229 16.9348 18.9369 16.7605 19.106 16.5434C19.2751 16.3264 19.395 16.0722 19.4565 15.7999C19.5181 15.5277 19.5199 15.2444 19.4617 14.9713C19.4034 14.6983 19.2867 14.4425 19.1203 14.2232C18.9539 14.0038 18.7421 13.8267 18.5007 13.7049C18.2594 13.5831 17.9948 13.5199 17.7267 13.52L17.2446 13.269C17.1087 13.1977 16.9945 13.0884 16.9146 12.9533C16.8348 12.8183 16.7924 12.6627 16.7923 12.504V10.032V10.032Z" stroke="white" stroke-width="1.5" stroke-linecap="round" stroke-linejoin="round"/>
</g>
</svg>
