<svg width="54" height="54" viewBox="0 0 54 54" fill="none" xmlns="http://www.w3.org/2000/svg">
<g id="Group">
<path id="Vector" d="M21.1667 27H6.58333C5.03624 27 3.55251 26.3854 2.45854 25.2915C1.36458 24.1975 0.75 22.7138 0.75 21.1667V6.58333C0.75 5.03624 1.36458 3.55251 2.45854 2.45854C3.55251 1.36458 5.03624 0.75 6.58333 0.75H21.1667C22.7138 0.75 24.1975 1.36458 25.2915 2.45854C26.3854 3.55251 27 5.03624 27 6.58333V21.1667C27 22.7138 26.3854 24.1975 25.2915 25.2915C24.1975 26.3854 22.7138 27 21.1667 27Z" stroke="#637592" stroke-width="1.25" stroke-linecap="round" stroke-linejoin="round"/>
<path id="Vector_2" d="M45.959 50.333H37.209C36.0487 50.333 34.9359 49.8721 34.1154 49.0516C33.2949 48.2311 32.834 47.1183 32.834 45.958V37.208C32.834 36.0477 33.2949 34.9349 34.1154 34.1144C34.9359 33.2939 36.0487 32.833 37.209 32.833H45.959C47.1193 32.833 48.2321 33.2939 49.0526 34.1144C49.873 34.9349 50.334 36.0477 50.334 37.208V45.958C50.334 47.1183 49.873 48.2311 49.0526 49.0516C48.2321 49.8721 47.1193 50.333 45.959 50.333Z" stroke="#637592" stroke-width="1.25" stroke-linecap="round" stroke-linejoin="round"/>
<path id="Vector_3" d="M48.875 24.083H40.125C38.9647 24.083 37.8519 23.6221 37.0314 22.8016C36.2109 21.9811 35.75 20.8683 35.75 19.708V10.958C35.75 9.79769 36.2109 8.68489 37.0314 7.86442C37.8519 7.04394 38.9647 6.58301 40.125 6.58301H48.875C50.0353 6.58301 51.1481 7.04394 51.9686 7.86442C52.7891 8.68489 53.25 9.79769 53.25 10.958V19.708C53.25 20.8683 52.7891 21.9811 51.9686 22.8016C51.1481 23.6221 50.0353 24.083 48.875 24.083Z" fill="#1CAEBE" stroke="#1CAEBE" stroke-width="1.25" stroke-linecap="round" stroke-linejoin="round"/>
<path id="Vector_4" d="M19.709 53.25H10.959C9.79866 53.25 8.68586 52.7891 7.86539 51.9686C7.04492 51.1481 6.58398 50.0353 6.58398 48.875V40.125C6.58398 38.9647 7.04492 37.8519 7.86539 37.0314C8.68586 36.2109 9.79866 35.75 10.959 35.75H19.709C20.8693 35.75 21.9821 36.2109 22.8026 37.0314C23.623 37.8519 24.084 38.9647 24.084 40.125V48.875C24.084 50.0353 23.623 51.1481 22.8026 51.9686C21.9821 52.7891 20.8693 53.25 19.709 53.25Z" stroke="#637592" stroke-width="1.25" stroke-linecap="round" stroke-linejoin="round"/>
</g>
</svg>
